<svg width="100" height="100" viewBox="0 0 100 100" fill="none" xmlns="http://www.w3.org/2000/svg">
<path d="M69.7917 14.8333V8.33325C69.7917 6.62492 68.3751 5.20825 66.6667 5.20825C64.9584 5.20825 63.5417 6.62492 63.5417 8.33325V14.5833H36.4584V8.33325C36.4584 6.62492 35.0417 5.20825 33.3334 5.20825C31.6251 5.20825 30.2084 6.62492 30.2084 8.33325V14.8333C18.9584 15.8749 13.5001 22.5833 12.6667 32.5416C12.5834 33.7499 13.5834 34.7499 14.7501 34.7499H85.2501C86.4584 34.7499 87.4584 33.7083 87.3334 32.5416C86.5001 22.5833 81.0417 15.8749 69.7917 14.8333Z" fill="#213159"/>
<path d="M83.3333 41H16.6667C14.375 41 12.5 42.875 12.5 45.1667V70.8333C12.5 83.3333 18.75 91.6667 33.3333 91.6667H66.6667C81.25 91.6667 87.5 83.3333 87.5 70.8333V45.1667C87.5 42.875 85.625 41 83.3333 41ZM38.375 75.875C37.9583 76.25 37.5 76.5417 37 76.75C36.5 76.9583 35.9583 77.0833 35.4167 77.0833C34.875 77.0833 34.3333 76.9583 33.8333 76.75C33.3333 76.5417 32.875 76.25 32.4583 75.875C31.7083 75.0833 31.25 74 31.25 72.9167C31.25 71.8333 31.7083 70.75 32.4583 69.9583C32.875 69.5833 33.3333 69.2917 33.8333 69.0833C34.8333 68.6667 36 68.6667 37 69.0833C37.5 69.2917 37.9583 69.5833 38.375 69.9583C39.125 70.75 39.5833 71.8333 39.5833 72.9167C39.5833 74 39.125 75.0833 38.375 75.875ZM39.25 59.9167C39.0417 60.4167 38.75 60.875 38.375 61.2917C37.9583 61.6667 37.5 61.9583 37 62.1667C36.5 62.375 35.9583 62.5 35.4167 62.5C34.875 62.5 34.3333 62.375 33.8333 62.1667C33.3333 61.9583 32.875 61.6667 32.4583 61.2917C32.0833 60.875 31.7917 60.4167 31.5833 59.9167C31.375 59.4167 31.25 58.875 31.25 58.3333C31.25 57.7917 31.375 57.25 31.5833 56.75C31.7917 56.25 32.0833 55.7917 32.4583 55.375C32.875 55 33.3333 54.7083 33.8333 54.5C34.8333 54.0833 36 54.0833 37 54.5C37.5 54.7083 37.9583 55 38.375 55.375C38.75 55.7917 39.0417 56.25 39.25 56.75C39.4583 57.25 39.5833 57.7917 39.5833 58.3333C39.5833 58.875 39.4583 59.4167 39.25 59.9167ZM52.9583 61.2917C52.5417 61.6667 52.0833 61.9583 51.5833 62.1667C51.0833 62.375 50.5417 62.5 50 62.5C49.4583 62.5 48.9167 62.375 48.4167 62.1667C47.9167 61.9583 47.4583 61.6667 47.0417 61.2917C46.2917 60.5 45.8333 59.4167 45.8333 58.3333C45.8333 57.25 46.2917 56.1667 47.0417 55.375C47.4583 55 47.9167 54.7083 48.4167 54.5C49.4167 54.0417 50.5833 54.0417 51.5833 54.5C52.0833 54.7083 52.5417 55 52.9583 55.375C53.7083 56.1667 54.1667 57.25 54.1667 58.3333C54.1667 59.4167 53.7083 60.5 52.9583 61.2917Z" fill="#213159"/>
</svg>
