<svg width="100" height="100" viewBox="0 0 100 100" fill="none" xmlns="http://www.w3.org/2000/svg">
<path d="M89.5833 64.5833C90.7499 64.5833 91.6666 65.4999 91.6666 66.6666V70.8333C91.6666 77.7499 86.0833 83.3332 79.1666 83.3332C79.1666 76.4582 73.5416 70.8333 66.6666 70.8333C59.7916 70.8333 54.1666 76.4582 54.1666 83.3332H45.8333C45.8333 76.4582 40.2083 70.8333 33.3333 70.8333C26.4583 70.8333 20.8333 76.4582 20.8333 83.3332C13.9166 83.3332 8.33325 77.7499 8.33325 70.8333V62.4999C8.33325 60.2083 10.2083 58.3333 12.4999 58.3333H52.0833C57.8332 58.3333 62.4999 53.6666 62.4999 47.9166V24.9999C62.4999 22.7083 64.3749 20.8333 66.6666 20.8333H70.1666C73.1666 20.8333 75.9166 22.4583 77.4166 25.0416L80.0832 29.7083C80.4582 30.3749 79.9583 31.2499 79.1666 31.2499C73.4166 31.2499 68.7499 35.9166 68.7499 41.6666V54.1666C68.7499 59.9166 73.4166 64.5833 79.1666 64.5833H89.5833Z" fill="#213159"/>
<path d="M33.3333 91.6667C37.9357 91.6667 41.6667 87.9357 41.6667 83.3333C41.6667 78.731 37.9357 75 33.3333 75C28.731 75 25 78.731 25 83.3333C25 87.9357 28.731 91.6667 33.3333 91.6667Z" fill="#213159"/>
<path d="M66.6666 91.6667C71.269 91.6667 74.9999 87.9357 74.9999 83.3333C74.9999 78.731 71.269 75 66.6666 75C62.0642 75 58.3333 78.731 58.3333 83.3333C58.3333 87.9357 62.0642 91.6667 66.6666 91.6667Z" fill="#213159"/>
<path d="M91.6667 52.2083V58.3333H79.1667C76.875 58.3333 75 56.4583 75 54.1667V41.6667C75 39.375 76.875 37.5 79.1667 37.5H84.5417L90.5833 48.0833C91.2917 49.3333 91.6667 50.75 91.6667 52.2083Z" fill="#213159"/>
<path d="M54.4999 8.33325H23.7083C15.2083 8.33325 8.33325 15.2083 8.33325 23.7083V50.2916C8.33325 52.5833 10.2083 54.4583 12.4999 54.4583H50.6249C54.8749 54.4583 58.3333 50.9999 58.3333 46.7499V12.1666C58.3333 10.0416 56.6249 8.33325 54.4999 8.33325ZM41.9582 29.4583L33.2499 37.8749C32.6249 38.4583 31.8333 38.7499 31.0833 38.7499C30.2916 38.7499 29.4999 38.4583 28.9166 37.8749L24.7083 33.8749C23.4583 32.6666 23.4166 30.6666 24.6249 29.4166C25.7916 28.1666 27.7916 28.1666 29.0416 29.3333L31.0833 31.2916L37.6249 24.9583C38.8749 23.7499 40.8333 23.7916 42.0416 25.0416C43.2499 26.2916 43.2082 28.2499 41.9582 29.4583Z" fill="#213159"/>
</svg>
