<svg width="100" height="100" viewBox="0 0 100 100" fill="none" xmlns="http://www.w3.org/2000/svg">
<path d="M76.0851 22.396L65.0534 15.8523C64.1362 15.3083 63.13 15.0496 62.1362 15.0496C60.1745 15.0498 58.2632 16.0587 57.1923 17.8734L53.7056 23.7822L74.6118 36.1835L78.1011 30.2705C79.7136 27.538 78.811 24.013 76.0851 22.396Z" fill="#213159"/>
<path d="M36.9626 52.1554C35.9984 53.7894 36.5388 55.8957 38.1707 56.8636L53.1582 65.7539C54.7953 66.725 56.9097 66.1824 57.8771 64.5431L71.631 41.2351L50.7248 28.8337L36.9626 52.1554Z" fill="#213159"/>
<path d="M99.9342 4.07526C99.5946 2.49322 98.0329 1.48463 96.4428 1.82291C87.3584 3.75729 82.1942 10.4866 78.3772 16.936L79.0956 17.3622C80.6491 18.2837 81.909 19.5149 82.8444 20.9305L83.1725 20.3743C86.3778 14.8784 90.6071 9.05729 97.6725 7.55279C99.2614 7.21451 100.274 5.65748 99.9342 4.07526Z" fill="#213159"/>
<path d="M45.9325 98.0552C49.8856 98.0552 53.0901 94.8635 53.0901 90.9263C53.0901 86.9891 49.8856 83.7974 45.9325 83.7974C41.9795 83.7974 38.7749 86.9891 38.7749 90.9263C38.7749 94.8635 41.9795 98.0552 45.9325 98.0552Z" fill="#213159"/>
<path d="M40.2423 79.2417C37.43 77.5665 34.0087 76.5828 30.3171 76.5828C24.021 76.5828 18.5087 79.4412 15.4693 83.7177H9.00931C6.47337 83.7177 4.17571 85.2168 3.14857 87.5416L0.255011 94.091C-0.609247 96.047 0.829229 98.2425 2.97474 98.2425H35.1646C33.732 96.1574 32.8919 93.638 32.8919 90.9261C32.8919 85.7951 35.8952 81.3503 40.2423 79.2417Z" fill="#213159"/>
<path d="M47.8607 77.893L51.5908 71.5719L36.0832 62.373L31.5544 70.0582C38.2267 70.3275 44.2919 73.5139 47.8607 77.893Z" fill="#213159"/>
</svg>
