<svg width="100" height="100" viewBox="0 0 100 100" fill="none" xmlns="http://www.w3.org/2000/svg">
<path d="M77.2498 17.1666L54.3332 8.58325C51.9582 7.70825 48.0832 7.70825 45.7082 8.58325L22.7915 17.1666C18.3748 18.8333 14.7915 23.9999 14.7915 28.7083V62.4582C14.7915 65.8332 16.9998 70.2916 19.7082 72.2916L42.6248 89.4166C46.6665 92.4582 53.2915 92.4582 57.3332 89.4166L80.2498 72.2916C82.9582 70.2499 85.1665 65.8332 85.1665 62.4582V28.7083C85.2082 23.9999 81.6248 18.8333 77.2498 17.1666ZM64.4998 40.4999L46.5832 58.4166C45.9582 59.0416 45.1665 59.3332 44.3748 59.3332C43.5832 59.3332 42.7915 59.0416 42.1665 58.4166L35.4998 51.6666C34.2915 50.4582 34.2915 48.4583 35.4998 47.2499C36.7082 46.0416 38.7082 46.0416 39.9165 47.2499L44.4165 51.7499L60.1248 36.0416C61.3332 34.8332 63.3332 34.8332 64.5415 36.0416C65.7498 37.2499 65.7498 39.2916 64.4998 40.4999Z" fill="#213159"/>
</svg>
