<svg width="100" height="100" viewBox="0 0 100 100" fill="none" xmlns="http://www.w3.org/2000/svg">
<path d="M89.7082 45.2917L83.3748 38.9584C82.2915 37.8751 81.4165 35.7501 81.4165 34.2501V25.2501C81.4165 21.5834 78.4165 18.5834 74.7498 18.5834H65.7915C64.2915 18.5834 62.1665 17.7084 61.0832 16.6251L54.7498 10.2917C52.1665 7.70841 47.9165 7.70841 45.3332 10.2917L38.9165 16.6251C37.8748 17.7084 35.7498 18.5834 34.2082 18.5834H25.2498C21.5832 18.5834 18.5832 21.5834 18.5832 25.2501V34.2084C18.5832 35.7084 17.7082 37.8334 16.6248 38.9167L10.2915 45.2501C7.70817 47.8334 7.70817 52.0834 10.2915 54.6668L16.6248 61.0001C17.7082 62.0834 18.5832 64.2084 18.5832 65.7084V74.6668C18.5832 78.3334 21.5832 81.3334 25.2498 81.3334H34.2082C35.7082 81.3334 37.8332 82.2084 38.9165 83.2918L45.2498 89.6251C47.8332 92.2084 52.0832 92.2084 54.6665 89.6251L60.9998 83.2918C62.0832 82.2084 64.2082 81.3334 65.7082 81.3334H74.6665C78.3332 81.3334 81.3332 78.3334 81.3332 74.6668V65.7084C81.3332 64.2084 82.2082 62.0834 83.2915 61.0001L89.6248 54.6668C92.3332 52.1251 92.3332 47.8751 89.7082 45.2917ZM33.3332 37.5001C33.3332 35.2084 35.2082 33.3334 37.4998 33.3334C39.7915 33.3334 41.6665 35.2084 41.6665 37.5001C41.6665 39.7917 39.8332 41.6668 37.4998 41.6668C35.2082 41.6668 33.3332 39.7917 33.3332 37.5001ZM39.7082 64.7084C39.0832 65.3334 38.2915 65.6251 37.4998 65.6251C36.7082 65.6251 35.9165 65.3334 35.2915 64.7084C34.0832 63.5001 34.0832 61.5001 35.2915 60.2918L60.2915 35.2917C61.4998 34.0834 63.4998 34.0834 64.7082 35.2917C65.9165 36.5001 65.9165 38.5001 64.7082 39.7084L39.7082 64.7084ZM62.4998 66.6668C60.1665 66.6668 58.2915 64.7918 58.2915 62.5001C58.2915 60.2084 60.1665 58.3334 62.4582 58.3334C64.7498 58.3334 66.6248 60.2084 66.6248 62.5001C66.6248 64.7918 64.7915 66.6668 62.4998 66.6668Z" fill="#1D2E57"/>
</svg>
