<svg width="100" height="100" viewBox="0 0 100 100" fill="none" xmlns="http://www.w3.org/2000/svg">
<path d="M30 47.5C17.5935 47.5 7.5 57.5935 7.5 70C7.5 82.4065 17.5935 92.5 30 92.5C42.4065 92.5 52.5 82.4065 52.5 70C52.5 57.5935 42.4065 47.5 30 47.5ZM39.9343 67.2677L28.2677 78.9343C27.7797 79.4225 27.1398 79.6667 26.5 79.6667C25.8602 79.6667 25.2203 79.4225 24.7323 78.9343L19.7323 73.9343C18.756 72.9582 18.756 71.3752 19.7323 70.3988C20.7085 69.4227 22.2915 69.4227 23.2678 70.3988L26.5 73.6312L36.399 63.7322C37.3752 62.756 38.9582 62.756 39.9345 63.7322C40.9107 64.7085 40.9107 66.2915 39.9343 67.2677Z" fill="#213159"/>
<path d="M73.3333 29.082C71.9527 29.082 70.8333 27.9671 70.8333 26.5918V7.5H35C30.8645 7.5 27.5 10.8514 27.5 14.9707V42.8097C28.3237 42.7353 29.1572 42.6953 30 42.6953C38.5213 42.6953 46.1495 46.5761 51.1977 52.6562H78.3333C79.714 52.6562 80.8333 53.7712 80.8333 55.1465C80.8333 56.5218 79.714 57.6367 78.3333 57.6367H54.4913C56.054 60.6741 57.0617 64.0391 57.3852 67.5977H78.3333C79.714 67.5977 80.8333 68.7126 80.8333 70.0879C80.8333 71.4632 79.714 72.5781 78.3333 72.5781H57.3852C56.6375 80.8024 52.2262 87.9887 45.793 92.5H85C89.1355 92.5 92.5 89.1486 92.5 85.0293V29.082H73.3333ZM78.3333 42.6953H41.6667C40.286 42.6953 39.1667 41.5804 39.1667 40.2051C39.1667 38.8298 40.286 37.7148 41.6667 37.7148H78.3333C79.714 37.7148 80.8333 38.8298 80.8333 40.2051C80.8333 41.5804 79.714 42.6953 78.3333 42.6953Z" fill="#213159"/>
<path d="M75 10V25H90L75 10Z" fill="#213159"/>
</svg>
