<svg width="44" height="44" viewBox="0 0 44 44" fill="none" xmlns="http://www.w3.org/2000/svg">
<path d="M39.4165 28.4167C39.9298 28.4167 40.3332 28.82 40.3332 29.3334V31.1667C40.3332 34.21 37.8765 36.6667 34.8332 36.6667C34.8332 33.6417 32.3582 31.1667 29.3332 31.1667C26.3082 31.1667 23.8332 33.6417 23.8332 36.6667H20.1665C20.1665 33.6417 17.6915 31.1667 14.6665 31.1667C11.6415 31.1667 9.1665 33.6417 9.1665 36.6667C6.12317 36.6667 3.6665 34.21 3.6665 31.1667V27.5C3.6665 26.4917 4.4915 25.6667 5.49984 25.6667H22.9165C25.4465 25.6667 27.4998 23.6134 27.4998 21.0834V11C27.4998 9.99169 28.3248 9.16669 29.3332 9.16669H30.8732C32.1932 9.16669 33.4032 9.88169 34.0632 11.0184L35.2365 13.0717C35.4015 13.365 35.1815 13.75 34.8332 13.75C32.3032 13.75 30.2498 15.8034 30.2498 18.3334V23.8334C30.2498 26.3634 32.3032 28.4167 34.8332 28.4167H39.4165Z" fill="#213159"/>
<path d="M14.6667 40.3333C16.6917 40.3333 18.3333 38.6917 18.3333 36.6667C18.3333 34.6416 16.6917 33 14.6667 33C12.6416 33 11 34.6416 11 36.6667C11 38.6917 12.6416 40.3333 14.6667 40.3333Z" fill="#213159"/>
<path d="M29.3332 40.3333C31.3582 40.3333 32.9998 38.6917 32.9998 36.6667C32.9998 34.6416 31.3582 33 29.3332 33C27.3081 33 25.6665 34.6416 25.6665 36.6667C25.6665 38.6917 27.3081 40.3333 29.3332 40.3333Z" fill="#213159"/>
<path d="M40.3333 22.9717V25.6667H34.8333C33.825 25.6667 33 24.8417 33 23.8333V18.3333C33 17.325 33.825 16.5 34.8333 16.5H37.1983L39.8567 21.1567C40.1683 21.7067 40.3333 22.33 40.3333 22.9717Z" fill="#213159"/>
<path d="M23.9798 3.66669H10.4315C6.6915 3.66669 3.6665 6.69169 3.6665 10.4317V22.1467C3.6665 23.155 4.4915 23.98 5.49984 23.98H22.2748C24.1448 23.98 25.6665 22.4584 25.6665 20.5884V5.35335C25.6665 4.41835 24.9148 3.66669 23.9798 3.66669ZM17.1965 14.5017C17.1965 14.9784 16.9398 15.4367 16.5365 15.675L14.2448 17.05C14.0065 17.1967 13.7682 17.2517 13.5298 17.2517C13.0715 17.2517 12.6132 17.0134 12.3565 16.5917C11.9532 15.9317 12.1732 15.0884 12.8148 14.7034L14.4465 13.7317V11.7517C14.4465 11 15.0698 10.3767 15.8215 10.3767C16.5732 10.3767 17.1965 11 17.1965 11.7517V14.5017Z" fill="#213159"/>
</svg>
