<svg width="44" height="44" viewBox="0 0 44 44" fill="none" xmlns="http://www.w3.org/2000/svg">
<g clip-path="url(#clip0_44324_4484)">
<path d="M33.4773 9.85428L28.6234 6.97503C28.2199 6.73569 27.7771 6.62183 27.3399 6.62183C26.4767 6.62191 25.6357 7.06587 25.1645 7.86431L23.6304 10.4642L32.8291 15.9208L34.3644 13.319C35.0739 12.1168 34.6768 10.5658 33.4773 9.85428Z" fill="#213159"/>
<path d="M16.2636 22.9484C15.8393 23.6674 16.0771 24.5941 16.7951 25.02L23.3896 28.9317C24.1099 29.359 25.0403 29.1203 25.4659 28.399L31.5176 18.1435L22.3189 12.6869L16.2636 22.9484Z" fill="#213159"/>
<path d="M43.9709 1.7931C43.8215 1.097 43.1343 0.653223 42.4347 0.802066C38.4376 1.65319 36.1653 4.61408 34.4858 7.45182L34.8019 7.63934C35.4855 8.04479 36.0398 8.58654 36.4514 9.20942L36.5958 8.96467C38.0061 6.54647 39.867 3.98519 42.9758 3.32321C43.6749 3.17437 44.1204 2.48928 43.9709 1.7931Z" fill="#213159"/>
<path d="M20.2104 43.1443C21.9497 43.1443 23.3597 41.7399 23.3597 40.0076C23.3597 38.2752 21.9497 36.8708 20.2104 36.8708C18.471 36.8708 17.061 38.2752 17.061 40.0076C17.061 41.7399 18.471 43.1443 20.2104 43.1443Z" fill="#213159"/>
<path d="M17.7066 34.8664C16.4692 34.1293 14.9638 33.6964 13.3395 33.6964C10.5693 33.6964 8.14384 34.9541 6.80648 36.8358H3.96409C2.84828 36.8358 1.83731 37.4954 1.38537 38.5183L0.112205 41.4C-0.268069 42.2607 0.364861 43.2267 1.30888 43.2267H15.4724C14.8421 42.3092 14.4724 41.2007 14.4724 40.0075C14.4724 37.7498 15.7939 35.7941 17.7066 34.8664Z" fill="#213159"/>
<path d="M21.0585 34.2729L22.6998 31.4916L15.8764 27.4441L13.8838 30.8256C16.8196 30.9441 19.4883 32.3461 21.0585 34.2729Z" fill="#213159"/>
</g>
<defs>
<clipPath id="clip0_44324_4484">
<rect width="44" height="44" fill="white"/>
</clipPath>
</defs>
</svg>
