<svg width="44" height="44" viewBox="0 0 44 44" fill="none" xmlns="http://www.w3.org/2000/svg">
<path d="M33.99 7.55333L23.9066 3.77667C22.8616 3.39167 21.1566 3.39167 20.1116 3.77667L10.0283 7.55333C8.08497 8.28667 6.5083 10.56 6.5083 12.6317V27.4817C6.5083 28.9667 7.47997 30.9283 8.67163 31.8083L18.755 39.3433C20.5333 40.6817 23.4483 40.6817 25.2266 39.3433L35.31 31.8083C36.5016 30.91 37.4733 28.9667 37.4733 27.4817V12.6317C37.4916 10.56 35.915 8.28667 33.99 7.55333ZM28.38 17.82L20.4966 25.7033C20.2216 25.9783 19.8733 26.1067 19.525 26.1067C19.1766 26.1067 18.8283 25.9783 18.5533 25.7033L15.62 22.7333C15.0883 22.2017 15.0883 21.3217 15.62 20.79C16.1516 20.2583 17.0316 20.2583 17.5633 20.79L19.5433 22.77L26.455 15.8583C26.9866 15.3267 27.8666 15.3267 28.3983 15.8583C28.93 16.39 28.93 17.2883 28.38 17.82Z" fill="#213159"/>
</svg>
