<svg width="44" height="44" viewBox="0 0 44 44" fill="none" xmlns="http://www.w3.org/2000/svg">
<path d="M14.23 6.96094H21.4487C22.8726 6.96094 24.0269 5.80671 24.0269 4.38281V2.57812C24.0269 1.15423 22.8726 0 21.4487 0H14.23C12.8061 0 11.6519 1.15423 11.6519 2.57812V4.38281C11.6519 5.80671 12.8061 6.96094 14.23 6.96094Z" fill="#213159"/>
<path d="M29.6987 3.52344H26.605V4.38281C26.605 7.22563 24.2915 9.53906 21.4487 9.53906H14.23C11.3872 9.53906 9.07373 7.22563 9.07373 4.38281V3.52344H5.97998C3.84787 3.52344 2.11279 5.25852 2.11279 7.39062V37.9844C2.11279 40.1165 3.84787 41.8516 5.97998 41.8516H27.6199L27.6216 36.312C27.2487 36.1161 26.8877 35.8987 26.5397 35.6641H6.15186C5.44029 35.6641 4.86279 35.0866 4.86279 34.375C4.86279 33.6634 5.44029 33.0859 6.15186 33.0859H23.8043C23.1305 32.2034 22.5822 31.2202 22.1844 30.1641H6.15186C5.44029 30.1641 4.86279 29.5866 4.86279 28.875C4.86279 28.1634 5.44029 27.5859 6.15186 27.5859H21.5433C21.4187 26.6123 21.4161 25.6429 21.5398 24.6641H6.15186C5.44029 24.6641 4.86279 24.0866 4.86279 23.375C4.86279 22.6634 5.44029 22.0859 6.15186 22.0859H22.1783C23.9031 17.4909 28.4303 14.3619 33.5659 14.6248V7.39062C33.5659 5.25852 31.8308 3.52344 29.6987 3.52344ZM10.9644 17.1016H10.1909V17.875C10.1909 18.5866 9.61342 19.1641 8.90186 19.1641C8.19029 19.1641 7.61279 18.5866 7.61279 17.875V17.1016H6.83936C6.12779 17.1016 5.55029 16.5241 5.55029 15.8125C5.55029 15.1009 6.12779 14.5234 6.83936 14.5234H7.61279V13.75C7.61279 13.0384 8.19029 12.4609 8.90186 12.4609C9.61342 12.4609 10.1909 13.0384 10.1909 13.75V14.5234H10.9644C11.6759 14.5234 12.2534 15.1009 12.2534 15.8125C12.2534 16.5241 11.6759 17.1016 10.9644 17.1016ZM22.6519 17.1016H16.4644C15.7528 17.1016 15.1753 16.5241 15.1753 15.8125C15.1753 15.1009 15.7528 14.5234 16.4644 14.5234H22.6519C23.3634 14.5234 23.9409 15.1009 23.9409 15.8125C23.9409 16.5241 23.3634 17.1016 22.6519 17.1016Z" fill="#213159"/>
<path d="M30.1997 37.2917V41.25C30.1997 42.7685 31.4312 44 32.9497 44C34.4691 44 35.6997 42.7685 35.6997 41.25V37.296C33.947 37.7261 32.0447 37.7476 30.1997 37.2917Z" fill="#213159"/>
<path d="M32.9572 35.0482C37.8893 35.0482 41.8876 31.05 41.8876 26.1179C41.8876 21.1858 37.8893 17.1875 32.9572 17.1875C28.0251 17.1875 24.0269 21.1858 24.0269 26.1179C24.0269 31.05 28.0251 35.0482 32.9572 35.0482Z" fill="#213159"/>
</svg>
