<svg width="40" height="40" viewBox="0 0 40 40" fill="none" xmlns="http://www.w3.org/2000/svg">
<path d="M19.9998 3.33301C16.4648 3.33698 13.0758 4.74301 10.5761 7.24264C8.07651 9.74226 6.67047 13.1313 6.6665 16.6663C6.6665 22.0913 10.6048 26.5963 14.7765 31.3647C16.0965 32.8747 17.4632 34.4363 18.6798 36.0163C18.8355 36.2183 19.0355 36.3819 19.2643 36.4944C19.4932 36.607 19.7448 36.6655 19.9998 36.6655C20.2549 36.6655 20.5065 36.607 20.7353 36.4944C20.9642 36.3819 21.1641 36.2183 21.3198 36.0163C22.5365 34.4363 23.9032 32.8747 25.2232 31.3647C29.3948 26.5963 33.3332 22.0913 33.3332 16.6663C33.3292 13.1313 31.9232 9.74226 29.4235 7.24264C26.9239 4.74301 23.5348 3.33698 19.9998 3.33301ZM19.9998 21.6663C19.0109 21.6663 18.0442 21.3731 17.222 20.8237C16.3997 20.2743 15.7589 19.4934 15.3804 18.5798C15.002 17.6661 14.903 16.6608 15.0959 15.6909C15.2888 14.721 15.765 13.8301 16.4643 13.1308C17.1636 12.4315 18.0545 11.9553 19.0244 11.7624C19.9943 11.5695 20.9996 11.6685 21.9133 12.0469C22.8269 12.4254 23.6078 13.0662 24.1572 13.8885C24.7066 14.7107 24.9998 15.6774 24.9998 16.6663C24.9998 17.9924 24.4731 19.2642 23.5354 20.2019C22.5977 21.1396 21.3259 21.6663 19.9998 21.6663Z" fill="#E21502"/>
</svg>
