<svg width="40" height="40" viewBox="0 0 40 40" fill="none" xmlns="http://www.w3.org/2000/svg">
<g clip-path="url(#clip0_44347_4827)">
<path d="M29.0002 36.6665C22.1956 36.6577 15.6724 33.9507 10.8608 29.1392C6.04931 24.3277 3.34232 17.8044 3.3335 10.9999C3.3335 8.96654 4.14123 7.01649 5.57901 5.57871C7.01679 4.14093 8.96684 3.3332 11.0002 3.3332C11.4307 3.32992 11.8606 3.369 12.2835 3.44986C12.6923 3.51037 13.0943 3.61085 13.4835 3.74986C13.7572 3.84591 14.0012 4.01175 14.1912 4.23099C14.3812 4.45022 14.5107 4.71525 14.5668 4.99987L16.8502 14.9999C16.9117 15.2713 16.9043 15.5538 16.8286 15.8217C16.7529 16.0895 16.6113 16.3341 16.4168 16.5332C16.2002 16.7665 16.1835 16.7832 14.1335 17.8499C15.7752 21.4513 18.6555 24.3435 22.2502 25.9999C23.3335 23.9332 23.3502 23.9165 23.5835 23.6999C23.7826 23.5054 24.0272 23.3638 24.295 23.2881C24.5629 23.2124 24.8454 23.205 25.1168 23.2665L35.1168 25.5499C35.3923 25.6138 35.647 25.7468 35.857 25.9363C36.0669 26.1258 36.2252 26.3656 36.3168 26.6332C36.4575 27.0288 36.5635 27.4359 36.6335 27.8499C36.7006 28.2687 36.734 28.6923 36.7335 29.1165C36.7028 31.1412 35.8723 33.0714 34.4235 34.486C32.9746 35.9005 31.025 36.6844 29.0002 36.6665Z" fill="#E21502"/>
</g>
<defs>
<clipPath id="clip0_44347_4827">
<rect width="40" height="40" fill="white"/>
</clipPath>
</defs>
</svg>
