<svg width="112" height="64" viewBox="0 0 112 64" fill="none" xmlns="http://www.w3.org/2000/svg">
<g clip-path="url(#clip0_44347_4751)">
<path d="M78.3711 58.5401C81.9151 54.7441 91.7431 48.6201 102.435 57.9521C96.6951 64.3201 86.8391 66.4761 78.3711 58.5401Z" fill="#FFCC00"/>
<path d="M78.3711 58.5401C81.9151 54.7441 91.7431 48.6201 102.435 57.9521C96.6951 64.3201 86.8391 66.4761 78.3711 58.5401Z" fill="url(#paint0_linear_44347_4751)"/>
<path d="M90.0801 48.516C92.9721 39.296 102.508 36.208 110.188 40.804C108.152 48.8 98.6281 53.756 90.0801 48.516Z" fill="#FFCC00"/>
<path d="M90.0801 48.516C92.9721 39.296 102.508 36.208 110.188 40.804C108.152 48.8 98.6281 53.756 90.0801 48.516Z" fill="url(#paint1_linear_44347_4751)"/>
<path d="M97.32 36.6798C96.096 25.8678 103.048 19.9718 111.528 20.5038C113.488 30.0238 106.348 37.0918 97.32 36.6798Z" fill="#FFCC00"/>
<path d="M97.32 36.6798C96.096 25.8678 103.048 19.9718 111.528 20.5038C113.488 30.0238 106.348 37.0918 97.32 36.6798Z" fill="url(#paint2_linear_44347_4751)"/>
<path d="M97.905 22.6639C91.805 14.1839 92.989 6.8959 101.465 0.795898C107.569 9.2719 106.385 16.5599 97.905 22.6639Z" fill="#FFCC00"/>
<path d="M97.905 22.6639C91.805 14.1839 92.989 6.8959 101.465 0.795898C107.569 9.2719 106.385 16.5599 97.905 22.6639Z" fill="url(#paint3_linear_44347_4751)"/>
<path d="M33.6285 58.5401C30.0845 54.7441 20.2565 48.6201 9.56445 57.9521C15.3045 64.3201 25.1605 66.4761 33.6285 58.5401Z" fill="#FFCC00"/>
<path d="M33.6285 58.5401C30.0845 54.7441 20.2565 48.6201 9.56445 57.9521C15.3045 64.3201 25.1605 66.4761 33.6285 58.5401Z" fill="url(#paint4_linear_44347_4751)"/>
<path d="M21.9206 48.5158C19.0246 39.2958 9.48859 36.2078 1.80859 40.7998C3.84459 48.7958 13.3686 53.7518 21.9126 48.5118L21.9206 48.5158Z" fill="#FFCC00"/>
<path d="M21.9206 48.5158C19.0246 39.2958 9.48859 36.2078 1.80859 40.7998C3.84459 48.7958 13.3686 53.7518 21.9126 48.5118L21.9206 48.5158Z" fill="url(#paint5_linear_44347_4751)"/>
<path d="M14.681 36.6798C15.901 25.8678 8.94897 19.9718 0.468974 20.5038C-1.49103 30.0238 5.64497 37.0918 14.673 36.6798H14.681Z" fill="#FFCC00"/>
<path d="M14.681 36.6798C15.901 25.8678 8.94897 19.9718 0.468974 20.5038C-1.49103 30.0238 5.64497 37.0918 14.673 36.6798H14.681Z" fill="url(#paint6_linear_44347_4751)"/>
<path d="M14.0968 22.6639C20.1968 14.1839 19.0128 6.8959 10.5368 0.795898C4.4328 9.2719 5.6168 16.5599 14.0968 22.6639Z" fill="#FFCC00"/>
<path d="M14.0968 22.6639C20.1968 14.1839 19.0128 6.8959 10.5368 0.795898C4.4328 9.2719 5.6168 16.5599 14.0968 22.6639Z" fill="url(#paint7_linear_44347_4751)"/>
<path d="M56.001 2.66797C51.2568 2.67089 46.6198 4.07956 42.6757 6.7161C38.7316 9.35265 35.6572 13.0988 33.8408 17.4815C32.0244 21.8642 31.5474 26.6869 32.4701 31.3405C33.3928 35.9941 35.6738 40.2699 39.025 43.628C43.369 47.976 53.601 54.268 54.209 60.872C54.297 61.86 55.017 62.668 56.001 62.668C56.985 62.668 57.705 61.86 57.793 60.872C58.401 54.268 68.621 47.992 72.965 43.644C76.3209 40.2874 78.6065 36.0113 79.5327 31.3561C80.4589 26.7009 79.9843 21.8756 78.1687 17.4901C76.3531 13.1046 73.2781 9.35583 69.3324 6.71759C65.3867 4.07935 60.7474 2.6701 56.001 2.66797Z" fill="url(#paint8_linear_44347_4751)"/>
<path d="M55.9991 34.8801C53.8212 34.8801 51.7324 34.0149 50.1923 32.4748C48.6523 30.9348 47.7871 28.846 47.7871 26.6681C47.7871 24.4901 48.6523 22.4013 50.1923 20.8613C51.7324 19.3212 53.8212 18.4561 55.9991 18.4561C58.1452 18.5034 60.1874 19.3892 61.6884 20.9237C63.1894 22.4582 64.0299 24.5195 64.0299 26.6661C64.0299 28.8126 63.1894 30.8739 61.6884 32.4084C60.1874 33.9429 58.1452 34.8287 55.9991 34.8761V34.8801Z" fill="white"/>
</g>
<defs>
<linearGradient id="paint0_linear_44347_4751" x1="102.359" y1="58.7881" x2="78.3471" y2="59.7001" gradientUnits="userSpaceOnUse">
<stop stop-color="#FFCC00"/>
<stop offset="1" stop-color="#FE9B21"/>
</linearGradient>
<linearGradient id="paint1_linear_44347_4751" x1="110.164" y1="40.828" x2="90.5361" y2="49.78" gradientUnits="userSpaceOnUse">
<stop stop-color="#FFCC00"/>
<stop offset="1" stop-color="#FE9B21"/>
</linearGradient>
<linearGradient id="paint2_linear_44347_4751" x1="111.236" y1="20.2878" x2="98.596" y2="37.7758" gradientUnits="userSpaceOnUse">
<stop stop-color="#FFCC00"/>
<stop offset="1" stop-color="#FE9B21"/>
</linearGradient>
<linearGradient id="paint3_linear_44347_4751" x1="101.277" y1="0.791898" x2="99.481" y2="22.9199" gradientUnits="userSpaceOnUse">
<stop stop-color="#FFCC00"/>
<stop offset="1" stop-color="#FE9B21"/>
</linearGradient>
<linearGradient id="paint4_linear_44347_4751" x1="9.64045" y1="58.7881" x2="33.6525" y2="59.7001" gradientUnits="userSpaceOnUse">
<stop stop-color="#FFCC00"/>
<stop offset="1" stop-color="#FE9B21"/>
</linearGradient>
<linearGradient id="paint5_linear_44347_4751" x1="1.83659" y1="40.8278" x2="21.4646" y2="49.7798" gradientUnits="userSpaceOnUse">
<stop stop-color="#FFCC00"/>
<stop offset="1" stop-color="#FE9B21"/>
</linearGradient>
<linearGradient id="paint6_linear_44347_4751" x1="0.764973" y1="20.2878" x2="13.405" y2="37.7758" gradientUnits="userSpaceOnUse">
<stop stop-color="#FFCC00"/>
<stop offset="1" stop-color="#FE9B21"/>
</linearGradient>
<linearGradient id="paint7_linear_44347_4751" x1="10.7248" y1="0.791898" x2="12.5208" y2="22.9199" gradientUnits="userSpaceOnUse">
<stop stop-color="#FFCC00"/>
<stop offset="1" stop-color="#FE9B21"/>
</linearGradient>
<linearGradient id="paint8_linear_44347_4751" x1="56.001" y1="2.66797" x2="56.001" y2="62.668" gradientUnits="userSpaceOnUse">
<stop stop-color="#FF6122"/>
<stop offset="1" stop-color="#F22411"/>
</linearGradient>
<clipPath id="clip0_44347_4751">
<rect width="112" height="64" fill="white"/>
</clipPath>
</defs>
</svg>
