<svg width="80" height="80" viewBox="0 0 80 80" fill="none" xmlns="http://www.w3.org/2000/svg">
<path d="M25.8726 12.6562H38.9976C41.5865 12.6562 43.6851 10.5577 43.6851 7.96875V4.6875C43.6851 2.09859 41.5865 0 38.9976 0H25.8726C23.2837 0 21.1851 2.09859 21.1851 4.6875V7.96875C21.1851 10.5577 23.2837 12.6562 25.8726 12.6562Z" fill="#213159"/>
<path d="M53.9976 6.40625H48.3726V7.96875C48.3726 13.1375 44.1663 17.3438 38.9976 17.3438H25.8726C20.7038 17.3438 16.4976 13.1375 16.4976 7.96875V6.40625H10.8726C6.996 6.40625 3.84131 9.56094 3.84131 13.4375V69.0625C3.84131 72.9391 6.996 76.0938 10.8726 76.0938H50.2179L50.221 66.0219C49.5429 65.6656 48.8866 65.2703 48.2538 64.8438H11.1851C9.89131 64.8438 8.84131 63.7937 8.84131 62.5C8.84131 61.2063 9.89131 60.1562 11.1851 60.1562H43.2804C42.0554 58.5516 41.0585 56.7641 40.3351 54.8438H11.1851C9.89131 54.8438 8.84131 53.7937 8.84131 52.5C8.84131 51.2063 9.89131 50.1562 11.1851 50.1562H39.1694C38.9429 48.3859 38.9382 46.6234 39.1632 44.8438H11.1851C9.89131 44.8438 8.84131 43.7937 8.84131 42.5C8.84131 41.2063 9.89131 40.1562 11.1851 40.1562H40.3241C43.4601 31.8016 51.6913 26.1125 61.0288 26.5906V13.4375C61.0288 9.56094 57.8741 6.40625 53.9976 6.40625ZM19.9351 31.0938H18.5288V32.5C18.5288 33.7937 17.4788 34.8438 16.1851 34.8438C14.8913 34.8438 13.8413 33.7937 13.8413 32.5V31.0938H12.4351C11.1413 31.0938 10.0913 30.0437 10.0913 28.75C10.0913 27.4563 11.1413 26.4062 12.4351 26.4062H13.8413V25C13.8413 23.7063 14.8913 22.6562 16.1851 22.6562C17.4788 22.6562 18.5288 23.7063 18.5288 25V26.4062H19.9351C21.2288 26.4062 22.2788 27.4563 22.2788 28.75C22.2788 30.0437 21.2288 31.0938 19.9351 31.0938ZM41.1851 31.0938H29.9351C28.6413 31.0938 27.5913 30.0437 27.5913 28.75C27.5913 27.4563 28.6413 26.4062 29.9351 26.4062H41.1851C42.4788 26.4062 43.5288 27.4563 43.5288 28.75C43.5288 30.0437 42.4788 31.0938 41.1851 31.0938Z" fill="#213159"/>
<path d="M54.9087 67.8032V75.0001C54.9087 77.761 57.1478 80.0001 59.9087 80.0001C62.6712 80.0001 64.9087 77.761 64.9087 75.0001V67.811C61.722 68.5929 58.2632 68.6321 54.9087 67.8032Z" fill="#213159"/>
<path d="M59.9221 63.7241C68.8896 63.7241 76.1591 56.4545 76.1591 47.487C76.1591 38.5196 68.8896 31.25 59.9221 31.25C50.9546 31.25 43.6851 38.5196 43.6851 47.487C43.6851 56.4545 50.9546 63.7241 59.9221 63.7241Z" fill="#213159"/>
</svg>
