<svg width="80" height="80" viewBox="0 0 80 80" fill="none" xmlns="http://www.w3.org/2000/svg">
<path d="M71.6665 51.6665C72.5998 51.6665 73.3332 52.3998 73.3332 53.3332V56.6665C73.3332 62.1998 68.8665 66.6665 63.3332 66.6665C63.3332 61.1665 58.8332 56.6665 53.3332 56.6665C47.8332 56.6665 43.3332 61.1665 43.3332 66.6665H36.6665C36.6665 61.1665 32.1665 56.6665 26.6665 56.6665C21.1665 56.6665 16.6665 61.1665 16.6665 66.6665C11.1332 66.6665 6.6665 62.1998 6.6665 56.6665V49.9998C6.6665 48.1665 8.1665 46.6665 9.99984 46.6665H41.6665C46.2665 46.6665 49.9998 42.9332 49.9998 38.3332V19.9998C49.9998 18.1665 51.4998 16.6665 53.3332 16.6665H56.1332C58.5332 16.6665 60.7332 17.9665 61.9332 20.0332L64.0665 23.7665C64.3665 24.2998 63.9665 24.9998 63.3332 24.9998C58.7332 24.9998 54.9998 28.7332 54.9998 33.3332V43.3332C54.9998 47.9332 58.7332 51.6665 63.3332 51.6665H71.6665Z" fill="#213159"/>
<path d="M26.6667 73.3333C30.3486 73.3333 33.3333 70.3486 33.3333 66.6667C33.3333 62.9848 30.3486 60 26.6667 60C22.9848 60 20 62.9848 20 66.6667C20 70.3486 22.9848 73.3333 26.6667 73.3333Z" fill="#213159"/>
<path d="M53.3332 73.3333C57.0151 73.3333 59.9998 70.3486 59.9998 66.6667C59.9998 62.9848 57.0151 60 53.3332 60C49.6513 60 46.6665 62.9848 46.6665 66.6667C46.6665 70.3486 49.6513 73.3333 53.3332 73.3333Z" fill="#213159"/>
<path d="M73.3333 41.7667V46.6667H63.3333C61.5 46.6667 60 45.1667 60 43.3333V33.3333C60 31.5 61.5 30 63.3333 30H67.6333L72.4667 38.4667C73.0333 39.4667 73.3333 40.6 73.3333 41.7667Z" fill="#213159"/>
<path d="M43.5998 6.6665H18.9665C12.1665 6.6665 6.6665 12.1665 6.6665 18.9665V40.2665C6.6665 42.0998 8.1665 43.5998 9.99984 43.5998H40.4998C43.8998 43.5998 46.6665 40.8332 46.6665 37.4332V9.73317C46.6665 8.03317 45.2998 6.6665 43.5998 6.6665ZM31.2665 26.3665C31.2665 27.2332 30.7998 28.0665 30.0665 28.4998L25.8998 30.9998C25.4665 31.2665 25.0332 31.3665 24.5998 31.3665C23.7665 31.3665 22.9332 30.9332 22.4665 30.1665C21.7332 28.9665 22.1332 27.4332 23.2998 26.7332L26.2665 24.9665V21.3665C26.2665 19.9998 27.3998 18.8665 28.7665 18.8665C30.1332 18.8665 31.2665 19.9998 31.2665 21.3665V26.3665Z" fill="#213159"/>
</svg>
