<svg width="100" height="100" viewBox="0 0 100 100" fill="none" xmlns="http://www.w3.org/2000/svg">
<path d="M49.9994 53.4996C55.0317 53.4996 66.8633 47.4433 66.8633 32.9317C66.8633 30.9075 66.8141 28.9522 66.6472 27.1047C66.3733 23.4687 65.6286 20.2463 63.7745 17.7768C61.3961 14.4162 57.2351 12.3643 49.9994 12.3643C42.765 12.3643 38.6042 14.4153 36.2258 17.7749C34.3704 20.2451 33.6253 23.4683 33.3516 27.1055C33.185 28.9528 33.1357 30.9079 33.1357 32.9319C33.1355 47.4433 44.9671 53.4996 49.9994 53.4996ZM55.504 19.8993C55.0129 21.1406 54.7668 21.7614 54.2754 23.0025C51.1029 22.1062 48.8955 22.1062 45.7231 23.0025C45.2318 21.7614 44.9857 21.1406 44.4942 19.8993C48.4619 18.6982 51.537 18.6984 55.504 19.8993ZM35.6443 29.7853C35.8387 30.2102 36.6641 31.8441 37.9417 31.9972C39.4104 32.1735 41.8482 26.7959 49.9994 26.7828C58.1504 26.7959 60.5884 32.1735 62.0571 31.9972C63.3347 31.8439 64.1601 30.2102 64.3546 29.7853C64.394 30.8266 64.4086 31.8808 64.4086 32.9319C64.4086 40.0251 61.2766 44.4202 58.6489 46.858C55.3383 49.9299 51.6625 51.0448 49.9996 51.0448C48.3367 51.0448 44.6609 49.9299 41.3503 46.858C38.7225 44.4202 35.5907 40.0251 35.5907 32.9319C35.5905 31.8808 35.6049 30.8266 35.6443 29.7853Z" fill="#213159"/>
<path d="M81.3078 74.5928C80.4468 69.2395 78.6746 62.3434 75.1193 59.8929C72.6913 58.2187 64.2208 53.6933 60.6036 51.7609L60.5424 51.7284C60.129 51.5075 59.624 51.5519 59.2556 51.8412C57.3608 53.3287 55.2853 54.3312 53.0867 54.8208C52.6983 54.9073 52.3794 55.1833 52.2386 55.5552L49.9998 61.4565L47.7607 55.5552C47.6199 55.1833 47.3012 54.9073 46.9126 54.8208C44.7142 54.3312 42.6387 53.3287 40.7441 51.8412C40.3749 51.5517 39.8703 51.5075 39.4569 51.7284C35.8828 53.6382 27.3086 58.2561 24.891 59.8858C20.7982 62.6428 19.0089 72.6208 18.6917 74.5931C18.6604 74.7887 18.6785 74.9888 18.7444 75.1756C18.8312 75.4205 20.1848 78.9266 26.954 81.7455C27.3443 81.2536 27.8641 80.8807 28.4488 80.6708C27.7225 80.413 27.0921 79.9076 26.6889 79.2292C26.0882 78.2184 26.0658 76.9499 26.6292 75.9214C28.3647 72.7445 31.6884 70.7679 35.3075 70.7631C38.6738 70.7631 41.7253 72.4358 43.5373 75.1546H56.4547C56.8093 74.625 57.216 74.1296 57.6724 73.6717C59.5393 71.7994 62.023 70.7664 64.6663 70.7627H64.6684H64.6705C68.2867 70.7627 71.6145 72.7284 73.3561 75.8945C73.9205 76.922 73.9016 78.1879 73.3044 79.2021C72.9034 79.8807 72.2747 80.3878 71.5493 80.6479C72.1442 80.8585 72.6721 81.2371 73.0653 81.7376C79.8172 78.9201 81.1687 75.4205 81.2555 75.1761C81.3212 74.9885 81.3393 74.7883 81.3078 74.5928Z" fill="#213159"/>
<path d="M70.4391 83.3758H70.4383L64.2147 83.3844C64.1043 83.1224 63.8924 82.3948 63.8903 80.6591C63.8874 78.9232 64.0968 78.1944 64.207 77.9318L70.4289 77.9226C70.5776 77.9218 70.7148 77.8436 70.7901 77.7157C70.8659 77.5874 70.868 77.4297 70.7966 77.2995C69.569 75.068 67.2266 73.6821 64.6705 73.6821C62.8069 73.6848 61.0564 74.4132 59.7408 75.7328C59.0629 76.4124 58.5456 77.2084 58.2007 78.0743H41.7912C40.7609 75.5054 38.2468 73.6828 35.3077 73.6828C32.7593 73.6863 30.416 75.0801 29.1922 77.3208C29.1208 77.451 29.1238 77.6093 29.1995 77.7368C29.2752 77.8642 29.4125 77.942 29.5608 77.942H29.5612L35.7848 77.9322C35.8955 78.1942 36.107 78.9218 36.1091 80.6581C36.112 82.3942 35.9026 83.1226 35.7925 83.3848L29.5706 83.3942C29.4223 83.3944 29.285 83.4733 29.2093 83.6007C29.134 83.7286 29.1315 83.8869 29.2032 84.0171C30.4304 86.2484 32.7737 87.6353 35.3188 87.6353H35.329C37.193 87.6324 38.9431 86.904 40.2591 85.5842C40.937 84.9042 41.4541 84.108 41.7987 83.2421H58.2078C59.2383 85.8118 61.7506 87.6343 64.6824 87.6347C64.6824 87.6347 64.6917 87.6347 64.6922 87.6347C67.2401 87.6311 69.5839 86.2365 70.8077 83.9972C70.879 83.8669 70.8761 83.7083 70.8004 83.5811C70.7247 83.4537 70.5874 83.3758 70.4391 83.3758Z" fill="#213159"/>
</svg>
