<svg width="100" height="100" viewBox="0 0 100 100" fill="none" xmlns="http://www.w3.org/2000/svg">
<path d="M20.6921 45.3004C19.5968 42.3418 18.8036 39.3202 19.0428 36.1098C19.1939 34.1331 19.9367 32.4461 21.3846 31.0612C22.9584 29.5756 24.4441 28.0144 25.9927 26.5036C28.0071 24.5144 30.5378 24.527 32.5523 26.5036C33.7987 27.7248 35.0326 28.9713 36.2664 30.2177C37.4625 31.4137 38.6712 32.6097 39.8673 33.8184C41.9698 35.9461 41.9824 38.4263 39.8798 40.5414C38.369 42.0522 36.8707 43.5756 35.3347 45.0612C34.9318 45.4515 34.8941 45.7789 35.1081 46.2699C36.1153 48.6871 37.5758 50.84 39.2126 52.8544C42.5112 56.9084 46.238 60.5091 50.6824 63.2915C51.6393 63.8832 52.6843 64.3239 53.6789 64.8652C54.1951 65.1422 54.535 65.0541 54.9505 64.626C56.4488 63.0775 57.9848 61.5541 59.5208 60.0307C61.5353 58.0415 64.0534 58.0289 66.0678 60.0307C68.5355 62.4731 70.9907 64.9282 73.4332 67.3958C75.4854 69.4606 75.4728 71.9912 73.408 74.0685C72.0105 75.4786 70.5374 76.8131 69.228 78.2861C67.3143 80.4264 64.8969 81.1315 62.1522 80.9804C58.1485 80.7664 54.4595 79.4318 50.8964 77.707C42.9897 73.8671 36.2412 68.5415 30.5882 61.8185C26.4081 56.8328 22.9584 51.4192 20.6921 45.3004ZM81 49.8076C81 32.8238 67.1758 19 50.1914 19V24.8669C63.94 24.8669 75.1329 36.0594 75.1329 49.8076H81ZM64.1289 49.8076H69.996C69.996 38.8921 61.1072 30.0036 50.1914 30.0036V35.8706C53.9181 35.8706 57.4182 37.3184 60.0496 39.9497C62.681 42.581 64.1289 46.081 64.1289 49.8076Z" fill="#213159"/>
</svg>
