<svg width="100" height="100" viewBox="0 0 100 100" fill="none" xmlns="http://www.w3.org/2000/svg">
<path d="M31.7067 62.5562C27.0935 62.5562 23.355 66.2933 23.355 70.9069C23.355 75.5208 27.0935 79.2579 31.7067 79.2579C36.3215 79.2579 40.0591 75.5208 40.0591 70.9069C40.0591 66.2933 36.3215 62.5562 31.7067 62.5562ZM31.7067 74.5375C29.7013 74.5375 28.0763 72.9123 28.0763 70.9069C28.0763 68.9006 29.7013 67.2763 31.7067 67.2763C33.7123 67.2763 35.3384 68.9006 35.3384 70.9069C35.3384 72.9123 33.7123 74.5375 31.7067 74.5375Z" fill="#213159"/>
<path d="M75.7416 62.5562C71.1284 62.5562 67.3901 66.2933 67.3901 70.9069C67.3901 75.5208 71.1284 79.2579 75.7416 79.2579C80.3567 79.2579 84.094 75.5208 84.094 70.9069C84.094 66.2933 80.3567 62.5562 75.7416 62.5562ZM75.7416 74.5375C73.7362 74.5375 72.1115 72.9123 72.1115 70.9069C72.1115 68.9006 73.7362 67.2763 75.7416 67.2763C77.7475 67.2763 79.3736 68.9006 79.3736 70.9069C79.3736 72.9123 77.7475 74.5375 75.7416 74.5375Z" fill="#213159"/>
<path d="M41.1001 36.8946C41.1001 38.0649 40.1425 39.0222 38.9725 39.0222H9.61271C8.44248 39.0222 7.48535 38.0649 7.48535 36.8946V35.6181C7.48535 34.4481 8.44271 33.4907 9.61271 33.4907H38.9725C40.1428 33.4907 41.1001 34.4481 41.1001 35.6181V36.8946Z" fill="#213159"/>
<path d="M92.1101 49.3515C89.0478 48.5554 87.2955 48.0549 86.093 45.7326L82.0722 37.5917C80.8693 35.2695 77.7451 33.3692 75.1305 33.3692H69.631C69.631 33.3692 68.8912 33.3847 68.8912 32.6402C68.8912 30.9332 68.8912 25.8125 68.8912 25.8125C68.8912 23.1657 67.3934 21 64.2072 21H19.3869C14.8253 21 12.6597 23.1659 12.6597 25.8125V30.0913C12.6597 30.0913 12.6597 31.3639 13.8914 31.3639C20.1617 31.3639 38.9731 31.3639 38.9731 31.3639C41.3194 31.3639 43.2283 33.2725 43.2283 35.6188V36.8954C43.2283 39.2417 41.3194 41.1503 38.9731 41.1503H13.8914C13.8914 41.1503 12.6597 41.048 12.6597 42.3776C12.6597 43.0379 12.6597 43.4812 12.6597 43.849C12.6597 45.0192 14.2636 45.0185 14.2636 45.0185H31.1474C33.4937 45.0185 35.4026 46.9274 35.4026 49.2735V50.55C35.4026 52.8964 33.4937 54.805 31.1474 54.805H14.53C14.53 54.805 12.6597 54.7704 12.6597 56.2596C12.6597 58.8445 12.6597 66.5987 12.6597 66.5987C12.6597 69.2453 14.8253 71.4112 17.4722 71.4112C17.4722 71.4112 19.4659 71.4112 20.1304 71.4112C20.7333 71.4112 20.8221 71.0754 20.8221 70.9067C20.8221 64.9062 25.7045 60.025 31.7052 60.025C37.7064 60.025 42.5885 64.9067 42.5885 70.9067C42.5885 71.0761 42.5404 71.4112 43.0014 71.4112C48.2707 71.4112 64.454 71.4112 64.454 71.4112C64.8793 71.4112 64.862 71.0527 64.862 70.9067C64.862 64.9062 69.7441 60.025 75.7451 60.025C81.746 60.025 86.6281 64.9067 86.6281 70.9067C86.6281 71.0761 86.6239 71.4112 86.8901 71.4112C89.3063 71.4112 92.2987 71.4112 92.2987 71.4112C94.9146 71.4112 97.0544 69.2715 97.0544 66.6557V57.621C97.0546 50.0124 94.6522 50.0124 92.1101 49.3515ZM83.0607 48.9284C83.0607 48.9284 72.9615 48.9284 69.5244 48.9284C68.9653 48.9284 68.891 48.3839 68.891 48.3839V37.108C68.891 37.108 68.8594 36.675 69.5775 36.675C70.5433 36.675 73.4399 36.675 73.4399 36.675C75.767 36.675 78.5468 38.3659 79.6168 40.4322L83.1948 47.6761C83.3455 47.9677 83.5065 48.2266 83.6789 48.4587C83.8061 48.6288 83.593 48.9284 83.0607 48.9284Z" fill="#213159"/>
<path d="M33.2736 50.5494C33.2736 51.7197 32.3162 52.677 31.1462 52.677H4.12663C2.95639 52.677 1.99927 51.7197 1.99927 50.5494V49.2729C1.99927 48.1029 2.95663 47.1455 4.12663 47.1455H31.1462C32.3165 47.1455 33.2736 48.1029 33.2736 49.2729V50.5494Z" fill="#213159"/>
</svg>
