<svg width="100" height="100" viewBox="0 0 100 100" fill="none" xmlns="http://www.w3.org/2000/svg">
<path d="M87.7613 45.7813C87.6413 44.7131 86.3953 43.9095 85.3179 43.9095C81.8359 43.9095 78.7457 41.8658 77.4497 38.7027C76.1268 35.4636 76.9803 31.6868 79.5746 29.3069C80.3917 28.5598 80.4913 27.3089 79.8063 26.4405C78.0236 24.1773 75.9982 22.1326 73.7862 20.3607C72.9208 19.6666 71.6492 19.7632 70.8982 20.5944C68.6332 23.1028 64.5645 24.035 61.4204 22.7232C58.1497 21.3471 56.0853 18.0318 56.2881 14.4732C56.3548 13.3547 55.5371 12.3828 54.4225 12.253C51.5838 11.9243 48.72 11.9148 45.873 12.2307C44.7726 12.3523 43.9555 13.3012 43.992 14.4055C44.1152 17.9292 42.0275 21.186 38.7883 22.5129C35.682 23.7819 31.6416 22.8567 29.3813 20.3703C28.6342 19.5512 27.3849 19.4506 26.5135 20.13C24.2365 21.917 22.1655 23.963 20.3663 26.2078C19.6652 27.0804 19.7688 28.3452 20.5928 29.0949C23.2383 31.4906 24.0912 35.2999 22.7177 38.5768C21.4062 41.7008 18.1625 43.7133 14.4494 43.7133C13.2445 43.6745 12.387 44.484 12.2539 45.5798C11.9199 48.4337 11.9163 51.3431 12.2378 54.2203C12.3577 55.2931 13.6406 56.0898 14.7298 56.0898C18.0396 56.0056 21.2153 58.0533 22.5494 61.2963C23.8769 64.5354 23.0223 68.3105 20.4238 70.6937C19.611 71.4408 19.5071 72.6888 20.1934 73.5561C21.9581 75.8052 23.9854 77.8512 26.2039 79.6382C27.0749 80.3396 28.3417 80.2413 29.0966 79.4091C31.3704 76.8948 35.4385 75.9643 38.5698 77.2787C41.85 78.6512 43.9134 81.9662 43.7119 85.5257C43.6459 86.6442 44.4656 87.6191 45.5762 87.7459C47.0289 87.9159 48.4893 88 49.9542 88C51.3445 88 52.7351 87.9241 54.1257 87.7693C55.2275 87.6477 56.0432 86.6978 56.0061 85.5931C55.8789 82.0711 57.9713 78.8139 61.2064 77.4897C64.3335 76.2125 68.3558 77.1472 70.6175 79.63C71.3685 80.4474 72.6102 80.5467 73.4852 79.8699C75.7583 78.0875 77.8254 76.0425 79.6324 73.7918C80.3342 72.9208 80.2346 71.6544 79.406 70.9034C76.7611 68.5094 75.9036 64.6984 77.2771 61.4248C78.5682 58.3428 81.6913 56.2735 85.0503 56.2735L85.5204 56.286C86.6109 56.3744 87.613 55.5347 87.7449 54.4221C88.0804 51.5656 88.084 48.6595 87.7613 45.7813ZM49.9999 71.9075C37.9003 71.9075 28.0922 62.0996 28.0922 50.0005C28.0922 37.9014 37.9006 28.0934 49.9999 28.0934C62.0991 28.0934 71.9075 37.9014 71.9075 50.0005C71.9075 54.1072 70.7752 57.9484 68.8088 61.2332L59.216 51.6402C59.9105 50.0028 60.2773 48.2276 60.2769 46.3956C60.2769 42.8081 58.8797 39.4356 56.3427 36.8992C53.8063 34.3629 50.4337 32.966 46.8469 32.966C45.6498 32.966 44.4584 33.1251 43.3057 33.439C42.8008 33.5767 42.388 33.9928 42.2536 34.4986C42.1162 35.0159 42.271 35.5461 42.6753 35.9507C42.6753 35.9507 47.4112 40.723 48.9957 42.3072C49.1617 42.4732 49.1614 42.8692 49.1381 43.0119L49.1233 43.1161C48.9635 44.858 48.6556 46.9491 48.4015 47.7527C48.3673 47.7865 48.3351 47.8151 48.3003 47.85C48.2638 47.8864 48.2303 47.9216 48.1951 47.9578C47.381 48.2191 45.2577 48.5306 43.4881 48.6891L43.4884 48.6795L43.4089 48.6996C43.3948 48.7012 43.3685 48.7032 43.3336 48.7032C43.1423 48.7032 42.861 48.6496 42.6053 48.3942C40.956 46.745 36.4058 42.2273 36.4058 42.2273C35.9975 41.8204 35.5788 41.735 35.2998 41.735C34.6493 41.735 34.0669 42.205 33.8835 42.8791C32.6309 47.5144 33.9588 52.5004 37.3497 55.8916C39.8868 58.4283 43.2597 59.8252 46.8472 59.8252C48.6792 59.8252 50.4544 59.4587 52.0916 58.7642L61.7885 68.461C58.3841 70.6395 54.3414 71.9075 49.9999 71.9075Z" fill="#213159"/>
</svg>
