<svg width="100" height="100" viewBox="0 0 100 100" fill="none" xmlns="http://www.w3.org/2000/svg">
<path fill-rule="evenodd" clip-rule="evenodd" d="M69.2956 62.9313V80.6908C69.2956 81.4111 68.705 82 67.9827 82H20.3179C19.5906 82 19 81.4111 19 80.6908V18.3141C19 17.5889 19.5906 17 20.3179 17H58.9751C58.9731 17.0387 58.972 17.0777 58.972 17.1169V24.4704C58.972 26.0182 60.2515 27.2941 61.8038 27.2941H69.1784C69.2177 27.2941 69.2566 27.293 69.2956 27.291V38.9508L55.7766 62.2904C55.5858 62.6197 55.4853 62.9935 55.4853 63.374V71.0364C55.4853 71.8104 55.8994 72.5257 56.5717 72.9129C57.244 73.2999 58.0723 73.2999 58.7445 72.9129L65.3961 69.0841C65.7265 68.894 66.0008 68.6206 66.1915 68.2912L69.2956 62.9313ZM26.0095 27.2173H31.6159C32.2155 27.2173 32.7023 26.7319 32.7023 26.134C32.7023 25.5361 32.2155 25.0507 31.6159 25.0507H26.0095C25.4099 25.0507 24.923 25.5361 24.923 26.134C24.923 26.7319 25.4099 27.2173 26.0095 27.2173ZM26.0095 33.5509H39.2359C39.8357 33.5509 40.3224 33.0654 40.3224 32.4676C40.3224 31.8696 39.8357 31.3842 39.2359 31.3842H26.0095C25.4099 31.3842 24.923 31.8696 24.923 32.4676C24.923 33.0654 25.4099 33.5509 26.0095 33.5509ZM36.7223 79.3255C43.2245 79.3255 48.5216 74.0436 48.5216 67.56C48.5216 61.0842 43.2245 55.7944 36.7223 55.7944C30.228 55.7944 24.923 61.0842 24.923 67.56C24.923 74.0436 30.228 79.3255 36.7223 79.3255ZM36.7223 77.1589C31.4239 77.1589 27.0959 72.8496 27.0959 67.56C27.0959 62.2767 31.4239 57.9611 36.7223 57.9611C42.0271 57.9611 46.3487 62.2767 46.3487 67.56C46.3487 72.8496 42.0271 77.1589 36.7223 77.1589ZM30.9217 68.6275L33.859 71.5565C34.2687 71.9651 34.9281 71.9811 35.3572 71.5928L42.4919 65.139C42.936 64.7374 42.9695 64.0516 42.5666 63.6088C42.1638 63.166 41.476 63.1325 41.032 63.5343L34.6638 69.2948L32.458 67.0955C32.034 66.6727 31.3456 66.6727 30.9217 67.0955C30.4977 67.5183 30.4977 68.2047 30.9217 68.6275ZM36.7223 27.2173H53.1318C53.7314 27.2173 54.2182 26.7319 54.2182 26.134C54.2182 25.5361 53.7314 25.0507 53.1318 25.0507H36.7223C36.1227 25.0507 35.6359 25.5361 35.6359 26.134C35.6359 26.7319 36.1227 27.2173 36.7223 27.2173ZM26.0095 39.8845H47.4352C48.0348 39.8845 48.5216 39.399 48.5216 38.8011C48.5216 38.2031 48.0348 37.7178 47.4352 37.7178H26.0095C25.4099 37.7178 24.923 38.2031 24.923 38.8011C24.923 39.399 25.4099 39.8845 26.0095 39.8845ZM26.0095 52.5516H43.6606C44.2602 52.5516 44.747 52.0661 44.747 51.4683C44.747 50.8703 44.2602 50.3849 43.6606 50.3849H26.0095C25.4099 50.3849 24.923 50.8703 24.923 51.4683C24.923 52.0661 25.4099 52.5516 26.0095 52.5516ZM44.927 33.5509H60.7837C61.3833 33.5509 61.8702 33.0654 61.8702 32.4676C61.8702 31.8696 61.3833 31.3842 60.7837 31.3842H44.927C44.3274 31.3842 43.8405 31.8696 43.8405 32.4676C43.8405 33.0654 44.3274 33.5509 44.927 33.5509ZM39.2359 46.218H56.0516C56.6512 46.218 57.1381 45.7326 57.1381 45.1347C57.1381 44.5367 56.6512 44.0514 56.0516 44.0514H39.2359C38.6364 44.0514 38.1495 44.5367 38.1495 45.1347C38.1495 45.7326 38.6364 46.218 39.2359 46.218ZM26.0095 46.218H34.1969C34.7965 46.218 35.2833 45.7326 35.2833 45.1347C35.2833 44.5367 34.7965 44.0514 34.1969 44.0514H26.0095C25.4099 44.0514 24.923 44.5367 24.923 45.1347C24.923 45.7326 25.4099 46.218 26.0095 46.218ZM52.8553 39.8845H59.0721C59.6718 39.8845 60.1585 39.399 60.1585 38.8011C60.1585 38.2031 59.6718 37.7178 59.0721 37.7178H52.8553C52.2557 37.7178 51.7689 38.2031 51.7689 38.8011C51.7689 39.399 52.2557 39.8845 52.8553 39.8845ZM49.4371 52.5516H56.0516C56.6512 52.5516 57.1381 52.0661 57.1381 51.4683C57.1381 50.8703 56.6512 50.3849 56.0516 50.3849H49.4371C48.8375 50.3849 48.3506 50.8703 48.3506 51.4683C48.3506 52.0661 48.8375 52.5516 49.4371 52.5516ZM61.1449 17.1169C61.2864 17.1801 61.4132 17.2677 61.5304 17.3844L68.9101 24.743C69.0271 24.8597 69.115 24.9863 69.1784 25.1274H61.8038C61.4425 25.1274 61.1449 24.8306 61.1449 24.4704V17.1169ZM77.6178 44.2285L65.3965 65.3314L58.7449 61.4978L70.9659 40.3991L77.6178 44.2285ZM57.6582 63.374L64.3098 67.2076L58.3621 70.6314C58.2169 70.7149 58.038 70.7149 57.8929 70.6312C57.7477 70.5477 57.6582 70.3933 57.6582 70.2261V63.374ZM72.0527 38.5229L73.9216 35.2963C74.8013 33.7737 76.7631 33.2463 78.2901 34.1284L79.402 34.7641C80.9291 35.6412 81.4529 37.6024 80.5733 39.1251L78.7043 42.3522L72.0527 38.5229Z" fill="#213159"/>
</svg>
